<?xml version="1.0" encoding="UTF-8"?>
<!DOCTYPE svg PUBLIC "-//W3C//DTD SVG 1.1//EN" "http://www.w3.org/Graphics/SVG/1.1/DTD/svg11.dtd">
<svg xmlns="http://www.w3.org/2000/svg" version="1.1" width="2000px" height="2000px" style="shape-rendering:geometricPrecision; text-rendering:geometricPrecision; image-rendering:optimizeQuality; fill-rule:evenodd; clip-rule:evenodd" xmlns:xlink="http://www.w3.org/1999/xlink">
<g><path style="opacity:0.997" fill="#0e75bb" d="M 999.5,162.5 C 999.5,299.167 999.5,435.833 999.5,572.5C 875.483,501.472 751.483,430.472 627.5,359.5C 627.5,358.833 627.5,358.167 627.5,357.5C 627.937,355.926 628.937,354.759 630.5,354C 736.5,293.333 842.5,232.667 948.5,172C 964.746,164.784 981.746,161.618 999.5,162.5 Z"/></g>
<g><path style="opacity:0.997" fill="#13a89e" d="M 999.5,162.5 C 1023.56,163.015 1046.23,168.849 1067.5,180C 1167.34,239.091 1267.68,297.424 1368.5,355C 1369.82,355.816 1370.49,356.983 1370.5,358.5C 1370.5,358.833 1370.5,359.167 1370.5,359.5C 1252.39,427.106 1134.39,494.939 1016.5,563C 1010.93,566.275 1005.6,569.775 1000.5,573.5C 1000.17,573.5 999.833,573.5 999.5,573.5C 999.5,573.167 999.5,572.833 999.5,572.5C 999.5,435.833 999.5,299.167 999.5,162.5 Z"/></g>
<g><path style="opacity:0.997" fill="#262262" d="M 627.5,357.5 C 627.5,358.167 627.5,358.833 627.5,359.5C 627.5,502.167 627.5,644.833 627.5,787.5C 509.33,719.247 390.996,651.247 272.5,583.5C 284.955,562.545 301.621,545.712 322.5,533C 419.092,477.399 515.426,421.399 611.5,365C 616.474,361.679 621.807,359.179 627.5,357.5 Z"/></g>
<g><path style="opacity:0.997" fill="#0b9443" d="M 1725.5,581.5 C 1607.16,649.332 1489.16,717.665 1371.5,786.5C 1371.17,786.5 1370.83,786.5 1370.5,786.5C 1370.5,786.167 1370.5,785.833 1370.5,785.5C 1370.5,643.5 1370.5,501.5 1370.5,359.5C 1370.5,359.167 1370.5,358.833 1370.5,358.5C 1372.19,357.314 1373.86,357.481 1375.5,359C 1475.17,417.172 1575.17,474.839 1675.5,532C 1696.66,543.997 1713.33,560.497 1725.5,581.5 Z"/></g>
<g><path style="opacity:1" fill="#056839" d="M 1370.5,359.5 C 1370.5,501.5 1370.5,643.5 1370.5,785.5C 1247.34,715.42 1124.34,645.086 1001.5,574.5C 1001.5,573.833 1001.17,573.5 1000.5,573.5C 1005.6,569.775 1010.93,566.275 1016.5,563C 1134.39,494.939 1252.39,427.106 1370.5,359.5 Z"/></g>
<g><path style="opacity:1" fill="#283790" d="M 627.5,359.5 C 751.483,430.472 875.483,501.472 999.5,572.5C 999.5,572.833 999.5,573.167 999.5,573.5C 875.662,644.584 751.995,715.917 628.5,787.5C 628.167,787.5 627.833,787.5 627.5,787.5C 627.5,644.833 627.5,502.167 627.5,359.5 Z"/></g>
<g><path style="opacity:1" fill="#d4d5d5" d="M 999.5,573.5 C 999.833,573.5 1000.17,573.5 1000.5,573.5C 1001.17,573.5 1001.5,573.833 1001.5,574.5C 1000.5,716.666 1000.17,858.999 1000.5,1001.5C 1000.17,1001.5 999.833,1001.5 999.5,1001.5C 999.5,858.833 999.5,716.167 999.5,573.5 Z"/></g>
<g><path style="opacity:1" fill="#c2c2c2" d="M 999.5,573.5 C 999.5,716.167 999.5,858.833 999.5,1001.5C 876.194,1072.82 752.861,1144.15 629.5,1215.5C 628.5,1072.83 628.167,930.168 628.5,787.5C 751.995,715.917 875.662,644.584 999.5,573.5 Z"/></g>
<g><path style="opacity:1" fill="#e6e6e7" d="M 1001.5,574.5 C 1124.34,645.086 1247.34,715.42 1370.5,785.5C 1370.5,785.833 1370.5,786.167 1370.5,786.5C 1370.5,929.167 1370.5,1071.83 1370.5,1214.5C 1246.83,1144 1123.5,1073 1000.5,1001.5C 1000.17,858.999 1000.5,716.666 1001.5,574.5 Z"/></g>
<g><path style="opacity:0.999" fill="#8cc53e" d="M 1725.5,581.5 C 1737.69,600.243 1744.19,620.91 1745,643.5C 1744.61,762.496 1744.44,881.496 1744.5,1000.5C 1743.83,1000.5 1743.17,1000.5 1742.5,1000.5C 1618.83,929.167 1495.17,857.833 1371.5,786.5C 1489.16,717.665 1607.16,649.332 1725.5,581.5 Z"/></g>
<g><path style="opacity:0.998" fill="#652c90" d="M 272.5,583.5 C 390.996,651.247 509.33,719.247 627.5,787.5C 627.5,787.833 627.5,788.167 627.5,788.5C 503.5,859.5 379.5,930.5 255.5,1001.5C 255.766,877.499 256.266,753.499 257,629.5C 258.904,612.954 264.07,597.621 272.5,583.5 Z"/></g>
<g><path style="opacity:1" fill="#d7de21" d="M 1370.5,786.5 C 1370.83,786.5 1371.17,786.5 1371.5,786.5C 1495.17,857.833 1618.83,929.167 1742.5,1000.5C 1618.83,1072.34 1494.83,1143.67 1370.5,1214.5C 1370.5,1071.83 1370.5,929.167 1370.5,786.5 Z"/></g>
<g><path style="opacity:1" fill="#92268e" d="M 627.5,788.5 C 627.5,930.833 627.5,1073.17 627.5,1215.5C 503.473,1144.82 379.473,1074.15 255.5,1003.5C 255.5,1002.83 255.5,1002.17 255.5,1001.5C 379.5,930.5 503.5,859.5 627.5,788.5 Z"/></g>
<g><path style="opacity:1" fill="#f4ed30" d="M 1742.5,1000.5 C 1743.17,1000.5 1743.83,1000.5 1744.5,1000.5C 1744.67,1119.5 1744.5,1238.5 1744,1357.5C 1742.77,1379.76 1736.61,1400.43 1725.5,1419.5C 1607.34,1351.25 1489,1283.25 1370.5,1215.5C 1370.5,1215.17 1370.5,1214.83 1370.5,1214.5C 1494.83,1143.67 1618.83,1072.34 1742.5,1000.5 Z"/></g>
<g><path style="opacity:1" fill="#bcbcbf" d="M 627.5,787.5 C 627.833,787.5 628.167,787.5 628.5,787.5C 628.167,930.168 628.5,1072.83 629.5,1215.5C 752.861,1144.15 876.194,1072.82 999.5,1001.5C 999.833,1001.5 1000.17,1001.5 1000.5,1001.5C 1123.5,1073 1246.83,1144 1370.5,1214.5C 1370.5,1214.83 1370.5,1215.17 1370.5,1215.5C 1247.39,1285.89 1124.39,1356.56 1001.5,1427.5C 1000.5,1564.5 1000.17,1701.5 1000.5,1838.5C 1000.17,1838.5 999.833,1838.5 999.5,1838.5C 999.833,1701.67 999.5,1565 998.5,1428.5C 875.635,1357.9 752.635,1287.57 629.5,1217.5C 629.158,1216.66 628.492,1216.33 627.5,1216.5C 627.5,1216.17 627.5,1215.83 627.5,1215.5C 627.5,1073.17 627.5,930.833 627.5,788.5C 627.5,788.167 627.5,787.833 627.5,787.5 Z"/></g>
<g><path style="opacity:0.997" fill="#ec207b" d="M 255.5,1003.5 C 379.473,1074.15 503.473,1144.82 627.5,1215.5C 627.5,1215.83 627.5,1216.17 627.5,1216.5C 627.5,1216.83 627.5,1217.17 627.5,1217.5C 511.33,1284.75 394.997,1351.75 278.5,1418.5C 266.554,1397.74 259.054,1375.41 256,1351.5C 254.956,1305.67 254.456,1259.84 254.5,1214C 254.891,1143.83 255.224,1073.67 255.5,1003.5 Z"/></g>
<g><path style="opacity:0.999" fill="#e6e6e7" d="M 1370.5,1215.5 C 1370.5,1357.83 1370.5,1500.17 1370.5,1642.5C 1370.79,1644.29 1370.45,1645.95 1369.5,1647.5C 1272.11,1702.73 1175.11,1758.57 1078.5,1815C 1059.52,1826.33 1039.18,1833.99 1017.5,1838C 1011.84,1838.5 1006.18,1838.67 1000.5,1838.5C 1000.17,1701.5 1000.5,1564.5 1001.5,1427.5C 1124.39,1356.56 1247.39,1285.89 1370.5,1215.5 Z"/></g>
<g><path style="opacity:0.997" fill="#fecb08" d="M 1370.5,1215.5 C 1489,1283.25 1607.34,1351.25 1725.5,1419.5C 1719.51,1429.96 1712.17,1439.46 1703.5,1448C 1693.07,1457.1 1682.07,1465.43 1670.5,1473C 1572.08,1530.29 1473.58,1587.46 1375,1644.5C 1373.67,1643.42 1372.17,1642.75 1370.5,1642.5C 1370.5,1500.17 1370.5,1357.83 1370.5,1215.5 Z"/></g>
<g><path style="opacity:1" fill="#c51d39" d="M 627.5,1216.5 C 628.492,1216.33 629.158,1216.66 629.5,1217.5C 628.5,1358.67 628.167,1500 628.5,1641.5C 628.5,1642.17 628.167,1642.5 627.5,1642.5C 627.5,1500.83 627.5,1359.17 627.5,1217.5C 627.5,1217.17 627.5,1216.83 627.5,1216.5 Z"/></g>
<g><path style="opacity:0.997" fill="#d91b5c" d="M 627.5,1217.5 C 627.5,1359.17 627.5,1500.83 627.5,1642.5C 627.5,1642.83 627.5,1643.17 627.5,1643.5C 531.235,1589.37 435.568,1534.2 340.5,1478C 321.859,1466.03 305.026,1451.86 290,1435.5C 285.661,1430.15 281.828,1424.48 278.5,1418.5C 394.997,1351.75 511.33,1284.75 627.5,1217.5 Z"/></g>
<g><path style="opacity:1" fill="#bf1e2e" d="M 629.5,1217.5 C 752.635,1287.57 875.635,1357.9 998.5,1428.5C 875.501,1500 752.168,1571 628.5,1641.5C 628.167,1500 628.5,1358.67 629.5,1217.5 Z"/></g>
<g><path style="opacity:0.997" fill="#ef3f35" d="M 998.5,1428.5 C 999.5,1565 999.833,1701.67 999.5,1838.5C 981.414,1838.78 964.08,1835.28 947.5,1828C 939.5,1824 931.5,1820 923.5,1816C 824.934,1758.22 726.268,1700.72 627.5,1643.5C 627.5,1643.17 627.5,1642.83 627.5,1642.5C 628.167,1642.5 628.5,1642.17 628.5,1641.5C 752.168,1571 875.501,1500 998.5,1428.5 Z"/></g>
</svg>
